<svg width="408" height="776" viewBox="0 0 408 776" fill="none" xmlns="http://www.w3.org/2000/svg">
<title>Peak Education | Decor1 Rotated SVG</title>
<path d="M816 319.241L540.619 776L137.736 553.253C6.02376 480.432 -39.1043 319.15 36.94 193.019C112.984 66.8885 281.405 23.673 413.117 96.4944L816 319.241Z" fill="url(#paint0_linear)"/>
<path d="M203.089 30.3802C207.541 30.3802 211.15 33.8363 211.15 38.0997V109.319C211.15 113.582 207.541 117.038 203.089 117.038C198.637 117.038 195.028 113.582 195.028 109.319V38.0997C195.028 33.8363 198.637 30.3802 203.089 30.3802Z" fill="url(#paint1_linear)"/>
<path d="M186.187 0C189.059 0 191.387 2.22978 191.387 4.98036V125.505C191.387 128.256 189.059 130.485 186.187 130.485C183.314 130.485 180.986 128.256 180.986 125.505V4.98036C180.986 2.22978 183.314 0 186.187 0Z" fill="url(#paint2_linear)"/>
<path d="M467.288 98.113C471.74 98.113 475.349 101.569 475.349 105.833V177.052C475.349 181.315 471.74 184.771 467.288 184.771C462.836 184.771 459.227 181.315 459.227 177.052V105.833C459.227 101.569 462.836 98.113 467.288 98.113Z" fill="url(#paint3_linear)"/>
<path d="M444.145 82.1759C447.017 82.1759 449.346 84.4057 449.346 87.1562V207.681C449.346 210.431 447.017 212.661 444.145 212.661C441.273 212.661 438.944 210.431 438.944 207.681V87.1562C438.944 84.4057 441.273 82.1759 444.145 82.1759Z" fill="url(#paint4_linear)"/>
<path d="M26.003 362.57C28.8753 362.57 31.2037 364.8 31.2037 367.55V488.075C31.2037 490.826 28.8753 493.055 26.003 493.055C23.1307 493.055 20.8022 490.826 20.8022 488.075V367.55C20.8022 364.8 23.1307 362.57 26.003 362.57Z" fill="url(#paint5_linear)"/>
<path d="M91.0126 84.6661C96.1827 84.6661 100.374 88.6797 100.374 93.6307V206.187C100.374 211.138 96.1827 215.151 91.0126 215.151C85.8424 215.151 81.6512 211.138 81.6512 206.187V93.6307C81.6512 88.6797 85.8424 84.6661 91.0126 84.6661Z" fill="url(#paint6_linear)"/>
<path d="M38 436C39.1046 436 40 436.895 40 438V507C40 508.105 39.1046 509 38 509C36.8955 509 36 508.105 36 507V438C36 436.895 36.8955 436 38 436Z" fill="url(#paint7_linear)"/>
<path d="M294 585C296.209 585 298 586.791 298 589V654C298 656.209 296.209 658 294 658C291.791 658 290 656.209 290 654V589C290 586.791 291.791 585 294 585Z" fill="url(#paint8_linear)"/>
<path d="M304 604C305.657 604 307 605.343 307 607V674C307 675.657 305.657 677 304 677C302.343 677 301 675.657 301 674V607C301 605.343 302.343 604 304 604Z" fill="url(#paint9_linear)"/>
<rect x="145.62" y="60.2615" width="86.6582" height="16.1224" rx="8.06119" transform="rotate(90 145.62 60.2615)" fill="#F4F4F4"/>
<rect x="59" y="442" width="73" height="8" rx="4" transform="rotate(90 59 442)" fill="#F4F4F4"/>
<rect x="287" y="591" width="73" height="4" rx="2" transform="rotate(90 287 591)" fill="#F4F4F4"/>
<defs>
<linearGradient id="paint0_linear" x1="50.5" y1="52.5" x2="432.5" y2="442.5" gradientUnits="userSpaceOnUse">
<stop offset="0.0833333" stop-color="#0087FD"/>
<stop offset="1" stop-color="#8B1FFF"/>
</linearGradient>
<linearGradient id="paint1_linear" x1="50.5" y1="52.5" x2="432.5" y2="442.5" gradientUnits="userSpaceOnUse">
<stop offset="0.0833333" stop-color="#0087FD"/>
<stop offset="1" stop-color="#8B1FFF"/>
</linearGradient>
<linearGradient id="paint2_linear" x1="50.5" y1="52.5" x2="432.5" y2="442.5" gradientUnits="userSpaceOnUse">
<stop offset="0.0833333" stop-color="#0087FD"/>
<stop offset="1" stop-color="#8B1FFF"/>
</linearGradient>
<linearGradient id="paint3_linear" x1="50.5" y1="52.5" x2="432.5" y2="442.5" gradientUnits="userSpaceOnUse">
<stop offset="0.0833333" stop-color="#0087FD"/>
<stop offset="1" stop-color="#8B1FFF"/>
</linearGradient>
<linearGradient id="paint4_linear" x1="50.5" y1="52.5" x2="432.5" y2="442.5" gradientUnits="userSpaceOnUse">
<stop offset="0.0833333" stop-color="#0087FD"/>
<stop offset="1" stop-color="#8B1FFF"/>
</linearGradient>
<linearGradient id="paint5_linear" x1="50.5" y1="52.5" x2="432.5" y2="442.5" gradientUnits="userSpaceOnUse">
<stop offset="0.0833333" stop-color="#0087FD"/>
<stop offset="1" stop-color="#8B1FFF"/>
</linearGradient>
<linearGradient id="paint6_linear" x1="50.5" y1="52.5" x2="432.5" y2="442.5" gradientUnits="userSpaceOnUse">
<stop offset="0.0833333" stop-color="#0087FD"/>
<stop offset="1" stop-color="#8B1FFF"/>
</linearGradient>
<linearGradient id="paint7_linear" x1="50.5" y1="52.5" x2="432.5" y2="442.5" gradientUnits="userSpaceOnUse">
<stop offset="0.0833333" stop-color="#0087FD"/>
<stop offset="1" stop-color="#8B1FFF"/>
</linearGradient>
<linearGradient id="paint8_linear" x1="50.5" y1="52.5" x2="432.5" y2="442.5" gradientUnits="userSpaceOnUse">
<stop offset="0.0833333" stop-color="#0087FD"/>
<stop offset="1" stop-color="#8B1FFF"/>
</linearGradient>
<linearGradient id="paint9_linear" x1="50.5" y1="52.5" x2="432.5" y2="442.5" gradientUnits="userSpaceOnUse">
<stop offset="0.0833333" stop-color="#0087FD"/>
<stop offset="1" stop-color="#8B1FFF"/>
</linearGradient>
</defs>
</svg>
