<svg width="717" height="849" viewBox="0 0 717 849" fill="none" xmlns="http://www.w3.org/2000/svg">
    <g clip-path="url(#clip0)">
        <path d="M208.247 421.692C210.777 417.171 212.084 412.042 212.034 406.832C212.034 393.401 203.911 382.514 193.89 382.514C183.869 382.514 175.746 393.401 175.746 406.832C175.696 412.042 177.003 417.171 179.533 421.692C177.05 426.233 175.746 431.35 175.746 436.553C175.746 441.757 177.05 446.874 179.533 451.414C177.05 455.955 175.746 461.071 175.746 466.275C175.746 471.479 177.05 476.595 179.533 481.136C177.05 485.676 175.746 490.793 175.746 495.997C175.746 501.2 177.05 506.317 179.533 510.857C177.003 515.378 175.696 520.508 175.746 525.718C175.746 539.148 183.869 550.036 193.89 550.036C203.911 550.036 212.034 539.148 212.034 525.718C212.084 520.508 210.777 515.378 208.247 510.857C210.73 506.317 212.034 501.2 212.034 495.997C212.034 490.793 210.73 485.676 208.247 481.136C210.73 476.595 212.034 471.479 212.034 466.275C212.034 461.071 210.73 455.955 208.247 451.414C210.73 446.874 212.034 441.757 212.034 436.553C212.034 431.35 210.73 426.233 208.247 421.692V421.692Z" fill="#3F3D56"/>
        <path d="M193.89 401.428C203.911 401.428 212.034 390.54 212.034 377.11C212.034 363.68 203.911 352.792 193.89 352.792C183.869 352.792 175.746 363.68 175.746 377.11C175.746 390.54 183.869 401.428 193.89 401.428Z" fill="#3F3D56"/>
        <path d="M193.89 371.706C203.911 371.706 212.034 360.819 212.034 347.388C212.034 333.958 203.911 323.071 193.89 323.071C183.869 323.071 175.746 333.958 175.746 347.388C175.746 360.819 183.869 371.706 193.89 371.706Z" fill="#3F3D56"/>
        <path d="M261.812 143.994C264.29 140.763 266.548 137.36 268.569 133.81L220.894 125.794L272.456 126.187C277.402 115.168 280.1 103.233 280.386 91.11C280.671 78.9873 278.537 66.9324 274.115 55.683L204.939 92.4226L268.736 44.4109C262.759 33.8366 254.719 24.6357 245.118 17.3813C235.516 10.1268 224.558 4.97429 212.927 2.24462C201.296 -0.485038 189.24 -0.73334 177.511 1.51519C165.782 3.76371 154.631 8.46089 144.752 15.3141C134.873 22.1673 126.479 31.0298 120.091 41.3494C113.704 51.669 109.461 63.2246 107.626 75.2964C105.79 87.3683 106.403 99.6977 109.425 111.517C112.447 123.335 117.814 134.391 125.191 143.993C121.327 149.022 118.004 154.463 115.279 160.22L177.164 193.137L111.177 170.464C106.544 184.486 105.399 199.47 107.846 214.06C110.293 228.65 116.254 242.385 125.191 254.022C115.107 267.147 108.835 282.912 107.09 299.514C105.346 316.117 108.199 332.887 115.325 347.907C122.451 362.928 133.561 375.592 147.386 384.452C161.21 393.313 177.191 398.011 193.501 398.011C209.811 398.011 225.792 393.313 239.616 384.452C253.441 375.592 264.551 362.928 271.677 347.907C278.803 332.887 281.657 316.117 279.912 299.514C278.168 282.912 271.895 267.147 261.812 254.022C273.86 238.337 280.411 218.962 280.411 199.008C280.411 179.053 273.86 159.678 261.812 143.994Z" fill="#57B894"/>
        <path opacity="0.1" d="M106.592 199.008C106.562 218.967 113.115 238.352 125.191 254.022C115.107 267.147 108.835 282.912 107.09 299.514C105.346 316.117 108.199 332.887 115.325 347.907C122.451 362.928 133.561 375.592 147.386 384.452C161.211 393.313 177.191 398.012 193.501 398.012C209.811 398.012 225.792 393.313 239.616 384.452C253.441 375.592 264.551 362.928 271.677 347.907C278.803 332.887 281.657 316.117 279.912 299.514C278.168 282.912 271.895 267.147 261.812 254.022C273.46 238.882 106.592 189.021 106.592 199.008Z" fill="#373737"/>
        <path d="M670.877 725.754C648.387 807.804 474.851 883.903 290.312 830.882C105.773 777.861 -19.8891 615.798 2.60101 533.748C25.0911 451.698 187.217 480.733 371.756 533.754C556.295 586.775 693.367 643.705 670.877 725.754Z" fill="#3F3D56"/>
        <path opacity="0.1" d="M670.877 725.754C648.387 807.804 474.851 883.903 290.312 830.882C105.773 777.861 -19.8891 615.798 2.60101 533.748C25.0911 451.698 187.217 480.733 371.756 533.754C556.295 586.775 693.367 643.705 670.877 725.754Z" fill="black"/>
        <path d="M670.877 725.754C693.367 643.704 562 534.208 377.461 481.187C192.922 428.166 25.0911 451.698 2.60099 533.748C-19.8891 615.798 111.478 725.294 296.017 778.315C480.556 831.336 648.387 807.804 670.877 725.754Z" fill="#3F3D56"/>
        <path opacity="0.1" d="M280.332 665.017C336.52 665.017 382.069 651.506 382.069 634.84C382.069 618.173 336.52 604.662 280.332 604.662C224.145 604.662 178.596 618.173 178.596 634.84C178.596 651.506 224.145 665.017 280.332 665.017Z" fill="black"/>
        <path d="M405.607 461.18L276.931 592.921L222.848 537.549C219.381 533.999 214.678 532.005 209.775 532.005C204.872 532.005 200.169 533.999 196.702 537.549L194.759 534.574C187.539 541.966 189.482 556.925 196.702 564.317L266.875 636.161C269.519 638.868 273.106 640.39 276.846 640.391C280.585 640.392 284.173 638.872 286.819 636.166L431.739 487.949C438.964 480.56 441.585 467.01 434.364 459.618C427.146 452.228 412.825 453.79 405.607 461.18Z" fill="#57B894"/>
        <path opacity="0.1" d="M405.607 461.18L276.931 592.921L222.848 537.549C219.381 533.999 214.678 532.005 209.775 532.005C204.872 532.005 200.169 533.999 196.702 537.549L194.759 534.574C187.539 541.966 189.482 556.925 196.702 564.317L266.875 636.161C269.519 638.868 273.106 640.39 276.846 640.391C280.585 640.392 284.173 638.872 286.819 636.166L431.739 487.949C438.964 480.56 441.585 467.01 434.364 459.618C427.146 452.228 412.825 453.79 405.607 461.18Z" fill="black"/>
        <path d="M405.607 455.339L276.931 587.08L222.848 531.708C219.381 528.159 214.678 526.164 209.775 526.164C204.872 526.164 200.169 528.159 196.702 531.708V531.708C194.986 533.466 193.624 535.553 192.695 537.849C191.766 540.145 191.287 542.607 191.287 545.092C191.287 547.578 191.766 550.039 192.695 552.336C193.624 554.632 194.986 556.719 196.702 558.477L266.875 630.32C269.519 633.028 273.106 634.549 276.846 634.55C280.586 634.551 284.173 633.031 286.819 630.325L431.739 482.108C433.457 480.351 434.82 478.265 435.75 475.968C436.68 473.672 437.159 471.211 437.16 468.725C437.16 466.239 436.683 463.777 435.754 461.48C434.825 459.184 433.463 457.097 431.746 455.339V455.339C428.28 451.79 423.578 449.797 418.676 449.797C413.774 449.797 409.073 451.79 405.607 455.339Z" fill="#57B894"/>
        <path d="M468.267 679.595C468.267 679.595 456.759 683.129 451.006 690.198C451.006 690.198 440.649 694.911 434.32 693.732C427.99 692.554 416.483 704.336 425.689 707.87C434.895 711.405 491.282 720.83 492.433 717.885C493.583 714.939 493.583 684.896 493.583 684.896L468.267 679.595Z" fill="#0087FD"/>
        <path d="M558.66 674.536C558.66 674.536 547.912 680.031 543.422 688.002C543.422 688.002 534.003 694.457 527.571 694.402C521.138 694.348 511.765 707.969 521.425 709.842C531.086 711.715 588.217 711.141 588.859 708.037C589.502 704.934 584.489 675.332 584.489 675.332L558.66 674.536Z" fill="#0087FD"/>
        <path d="M486.967 275.19C501.266 275.19 512.859 263.322 512.859 248.682C512.859 234.041 501.266 222.173 486.967 222.173C472.667 222.173 461.075 234.041 461.075 248.682C461.075 263.322 472.667 275.19 486.967 275.19Z" fill="#FFB9B9"/>
        <path d="M507.968 253.1C507.968 253.1 510.845 273.129 516.023 275.485C519.626 277.301 522.927 279.686 525.805 282.554L511.42 289.623L483.227 287.856C483.227 287.856 485.528 274.896 481.501 268.416C477.473 261.936 507.968 253.1 507.968 253.1Z" fill="#FFB9B9"/>
        <path d="M561.478 347.942C561.478 347.942 574.712 382.698 561.478 416.275C548.244 449.853 542.491 455.155 542.491 455.155L538.463 410.974L543.094 406.672C543.094 406.672 545.899 393.268 543.619 385.332C541.34 377.396 544.792 352.655 544.792 352.655L561.478 347.942Z" fill="#FFB9B9"/>
        <path d="M462.513 423.344C462.513 423.344 445.827 462.224 447.553 481.074C449.279 499.925 462.513 579.451 462.513 579.451C462.513 579.451 460.787 681.951 465.965 681.951C471.144 681.951 495.885 691.376 495.885 684.896C495.885 678.416 501.063 522.899 501.063 522.899C501.063 522.899 530.408 591.232 533.285 596.534C536.162 601.836 554.574 684.896 560.903 684.896C567.232 684.896 586.795 679.005 585.069 674.882C583.342 670.758 563.78 578.862 552.847 555.298C541.915 531.735 544.217 442.784 544.217 442.784L525.805 401.548L462.513 423.344Z" fill="#373737"/>
        <path d="M479.199 236.605C479.199 236.605 463.089 235.427 461.938 231.304C460.787 227.18 458.486 223.646 459.636 223.646C460.787 223.646 461.362 220.7 461.362 220.7C461.362 220.7 462.513 220.111 463.089 220.7C463.664 221.289 464.239 216.577 464.239 216.577C464.239 216.577 464.815 214.81 465.39 215.988C465.965 217.166 465.965 216.577 466.541 214.81C467.116 213.042 469.993 211.864 469.993 211.864C469.993 211.864 480.925 212.453 482.651 210.097C484.378 207.741 503.94 209.508 507.968 212.453C511.996 215.399 529.832 226.002 526.955 234.838C524.079 243.674 513.722 263.114 513.722 266.06C513.722 269.005 509.694 268.416 508.543 265.47C507.393 262.525 498.187 258.991 498.187 257.223C498.187 255.456 493.008 238.962 490.131 240.14C487.254 241.318 483.802 250.743 482.651 248.976C481.501 247.209 479.199 236.605 479.199 236.605Z" fill="#3F3D56"/>
        <path d="M558.601 317.31C558.601 317.31 535.011 281.965 528.106 280.197C521.202 278.43 505.666 273.718 505.666 273.718C505.666 273.718 490.131 276.074 485.528 278.43C480.925 280.787 463.664 284.91 463.089 291.979C462.513 299.048 467.692 366.792 464.815 373.272C461.938 379.752 452.156 441.606 456.759 440.428C461.362 439.249 457.91 423.933 478.048 423.344C498.187 422.755 509.119 410.384 516.599 425.111C524.079 439.838 545.368 451.031 545.368 451.031C545.903 446.282 546.671 441.563 547.669 436.893C549.395 428.646 543.066 408.617 543.066 408.617C543.066 408.617 543.641 362.08 545.943 356.778C548.244 351.476 558.601 317.31 558.601 317.31Z" fill="#0087FD"/>
        <path d="M549.97 316.131L558.601 317.31C558.601 317.31 558.026 329.091 560.327 332.626C562.629 336.16 566.656 354.422 564.355 355.011C562.053 355.6 541.34 359.134 541.34 359.134L540.189 332.037L549.97 316.131Z" fill="#0087FD"/>
        <path d="M456.759 337.338C456.759 337.338 451.006 375.629 448.129 380.341C445.252 385.054 430.867 451.031 430.867 451.031C430.867 451.031 407.213 484.709 418.721 484.12C430.229 483.531 442.375 453.387 442.375 453.387C442.375 453.387 478.048 386.821 478.048 379.752C478.048 372.683 486.679 337.338 486.679 337.338H456.759Z" fill="#FFB9B9"/>
        <path d="M473.445 285.499L463.089 289.623C463.089 289.623 449.855 337.927 452.732 342.051C455.609 346.175 490.131 340.284 490.707 338.516C491.282 336.749 484.378 285.499 473.445 285.499Z" fill="#0087FD"/>
        <path d="M10.8317 409.624C10.8317 450.675 35.9858 483.892 67.0714 483.892Z" fill="#3F3D56"/>
        <path d="M67.0713 483.892C67.0713 442.38 95.1418 408.789 129.832 408.789Z" fill="#6C63FF"/>
        <path d="M31.2084 413.345C31.2084 452.339 47.2487 483.892 67.0714 483.892Z" fill="#0087FD"/>
        <path d="M67.0713 483.892C67.0713 430.849 99.5164 387.927 139.612 387.927Z" fill="#3F3D56"/>
        <path d="M55.24 484.416C55.24 484.416 63.2157 484.165 65.6194 482.412C68.0231 480.66 77.8881 478.567 78.4843 481.378C79.0806 484.188 90.4704 495.356 81.4658 495.43C72.4613 495.504 60.5432 493.994 58.1442 492.498C55.7452 491.002 55.24 484.416 55.24 484.416Z" fill="#A8A8A8"/>
        <path opacity="0.2" d="M81.6265 494.452C72.6219 494.526 60.7039 493.016 58.3049 491.52C56.4779 490.38 55.7498 486.292 55.5062 484.405C55.3375 484.413 55.24 484.416 55.24 484.416C55.24 484.416 55.7451 491.002 58.1442 492.498C60.5433 493.994 72.4613 495.504 81.4658 495.43C84.0651 495.409 84.9629 494.462 84.9136 493.059C84.5524 493.907 83.5611 494.436 81.6265 494.452Z" fill="black"/>
    </g>
    <defs>
        <clipPath id="clip0">
            <rect width="770" height="849" fill="white"/>
        </clipPath>
    </defs>
</svg>
