<svg width="216" height="216" viewBox="0 0 216 216" fill="none" xmlns="http://www.w3.org/2000/svg">
    <path fill-rule="evenodd" clip-rule="evenodd" d="M104.904 27.1674C90.0002 27.6539 75.0627 32.9778 62.7118 42.2037C29.329 67.1425 22.5115 114.604 47.5205 147.965C48.2944 148.997 49.018 149.917 49.1287 150.009C49.2923 150.145 49.531 149.852 50.4241 148.42C52.2979 145.416 56.1357 139.224 58.9658 134.64C61.924 129.849 62.3165 129.216 68.1167 119.88C70.2821 116.395 72.4523 112.896 72.9394 112.104C73.427 111.312 74.6885 109.271 75.7431 107.568C76.7977 105.865 77.9987 103.921 78.4129 103.248C80.6193 99.6592 82.8371 96.1065 82.9327 96.0066C82.9926 95.9439 83.7551 97.078 84.6272 98.5262C85.4993 99.975 87.2365 102.845 88.4882 104.904C89.7399 106.963 91.8189 110.398 93.1079 112.536C96.0406 117.4 95.9591 117.291 95.6232 115.92C95.4779 115.326 95.1923 114.127 94.9892 113.256C94.7862 112.385 94.1263 109.598 93.5226 107.064C92.9189 104.529 92.4151 102.326 92.4021 102.168C92.3897 102.01 95.4828 96.599 99.2758 90.1438C103.069 83.6892 106.534 77.7789 106.978 77.0099C107.421 76.241 107.823 75.6092 107.871 75.6059C107.971 75.5995 108.248 76.0477 110.763 80.2802C111.751 81.9434 114.376 86.3498 116.595 90.072C118.815 93.7942 122.252 99.5614 124.235 102.888C131.632 115.304 132.363 116.517 132.409 116.472C132.434 116.445 132.301 115.646 132.113 114.696C130.744 107.798 129.6 101.836 129.6 101.605C129.6 101.346 132.752 96.3398 132.917 96.3371C132.959 96.3365 133.117 96.5466 133.267 96.8042C133.644 97.4495 138.289 104.925 145.591 116.64C148.973 122.065 154.768 131.364 158.469 137.304C162.171 143.244 165.481 148.548 165.824 149.09C166.168 149.632 166.478 150.151 166.512 150.242C166.591 150.45 166.605 150.433 168.425 148.02C192.263 116.407 187.405 71.2768 157.388 45.4939C142.616 32.8061 124.624 26.5237 104.904 27.1674ZM95.7598 44.4274C96.68 44.9593 96.937 45.7207 96.8846 47.7614C96.8225 50.1973 96.329 50.8464 94.4595 50.9517L93.4562 51.0084V53.3682V55.728H92.5198H91.584V49.8814V44.0348L93.42 44.0856C94.9401 44.1272 95.3429 44.186 95.7598 44.4274ZM105.552 44.928V45.792H104.04H102.528V47.304V48.816H103.752H104.976V49.68V50.544H103.752H102.528V52.272V54H104.04H105.552V54.864V55.728H103.104H100.656V49.896V44.064H103.104H105.552V44.928ZM113.998 49.68C115.113 56.4905 115.113 55.728 113.993 55.728H113.075L112.896 54.5762L112.717 53.4238H111.743H110.769L110.673 54.108C110.428 55.8635 110.52 55.728 109.568 55.728C108.988 55.728 108.719 55.6713 108.716 55.5482C108.711 55.3327 110.448 44.5057 110.53 44.2384C110.573 44.1013 110.914 44.0635 111.839 44.0942L113.091 44.1358L113.998 49.68ZM120.39 46.44C120.432 47.7074 120.481 48.6648 120.498 48.5676C120.515 48.4704 120.991 47.4174 121.558 46.2278L122.588 44.064H123.502C124.606 44.064 124.62 43.8464 123.357 46.3444L122.314 48.4088L123.362 51.8886C124.644 56.1406 124.634 55.7507 123.454 55.6988L122.492 55.6562L121.746 53.143L120.999 50.6304L120.692 51.3254C120.429 51.9178 120.384 52.2947 120.384 53.8742V55.728H119.448H118.512V49.889V44.0505L119.412 44.0932L120.312 44.1358L120.39 46.44ZM93.4562 47.5794V49.3673L94.068 49.3004C94.9163 49.208 95.04 48.9802 95.04 47.5146C95.04 46.0755 94.8661 45.792 93.9848 45.792H93.4562V47.5794ZM111.6 47.0324C111.6 47.2657 111.472 48.3619 111.315 49.4683C111.157 50.5748 111.027 51.5608 111.026 51.6602C111.025 51.7801 111.263 51.84 111.744 51.84C112.598 51.84 112.561 52.103 112.132 49.0779C111.832 46.9589 111.6 46.0679 111.6 47.0324ZM133.085 59.4977C133.511 59.7337 133.797 60.0426 134.056 60.548L134.424 61.2641V65.516C134.424 69.7637 134.424 69.7685 134.064 70.4878C132.973 72.6694 129.253 72.373 128.609 70.0526C128.402 69.3106 128.394 61.7603 128.598 61.0243C129.083 59.2801 131.319 58.5193 133.085 59.4977ZM102.329 59.4594C103.284 59.893 103.691 60.5621 103.863 61.9796C104.061 63.612 104.04 63.6482 102.893 63.6482H101.952V62.6719C101.952 61.5103 101.71 61.0562 101.09 61.0562C100.119 61.0562 100.051 61.4034 100.108 66.055C100.157 70.0742 100.181 70.1762 101.086 70.1762C101.758 70.1762 101.873 69.9538 101.952 68.5017L102.024 67.176H102.96H103.896L103.877 68.6578C103.845 71.1553 103.027 72.0538 100.861 71.9717C99.5166 71.921 98.8886 71.5711 98.4085 70.6039C97.942 69.6654 97.9965 61.364 98.4744 60.5556C99.2196 59.2942 100.908 58.8141 102.329 59.4594ZM77.1838 60.264V61.1998H75.5282H73.872V62.7842V64.368H75.168H76.464V65.3038V66.2402H75.168H73.872V68.04V69.8398H75.5282H77.1838V70.7762V71.712H74.4455H71.7066L71.7152 65.5198L71.7233 59.3282H74.4536H77.1838V60.264ZM84.8227 59.6457C86.2429 60.2548 86.441 61.0778 86.3768 66.096L86.3282 69.9122L85.9367 70.578C85.3135 71.6375 84.692 71.8562 82.2976 71.8562H80.352V65.5733V59.2909L82.3322 59.359C83.6482 59.4043 84.483 59.5004 84.8227 59.6457ZM111.824 65.6521L112.84 71.8562H111.806H110.773L110.677 71.1002C110.625 70.6844 110.544 70.1336 110.499 69.876L110.416 69.4078H109.368H108.32L108.237 69.876C108.191 70.1336 108.111 70.6844 108.058 71.1002L107.963 71.8562H106.987C106.131 71.8562 106.018 71.8249 106.07 71.604C106.102 71.4652 106.358 69.9262 106.638 68.1842C107.611 62.1394 108.015 59.6873 108.061 59.5442C108.088 59.4594 108.662 59.4097 109.457 59.4243L110.807 59.4486L111.824 65.6521ZM120.211 60.3002L120.254 61.1998H119.167H118.08V66.528V71.8562H117.072H116.064V66.528V61.1998H115.056H114.048V60.2613V59.3222L117.108 59.3611L120.168 59.4L120.211 60.3002ZM91.152 64.3464C91.152 70.2146 91.1995 70.429 92.4658 70.2481C93.1235 70.1541 93.1635 69.8209 93.1657 64.4695L93.1678 59.4589L94.1398 59.5015L95.1118 59.5442V64.8C95.1118 69.8981 95.1026 70.0731 94.8035 70.632C93.7532 72.5911 90.6962 72.731 89.6022 70.8701L89.208 70.2L89.1637 64.8362L89.12 59.4718H90.1357H91.152V64.3464ZM124.92 65.7358V71.928H123.912H122.904L122.866 65.88C122.822 58.793 122.712 59.4475 123.946 59.5015L124.92 59.5442V65.7358ZM140.812 60.588C140.977 61.202 141.401 62.8058 141.753 64.152L142.395 66.5998L142.406 63.0293L142.416 59.4583L143.316 59.501L144.216 59.5442V65.7358V71.928L143.19 71.9701L142.163 72.0117L141.92 71.1061C141.787 70.6077 141.265 68.6448 140.761 66.744L139.844 63.288L139.834 67.6507L139.824 72.0139L138.924 71.9707L138.024 71.928L137.986 65.88C137.942 58.7336 137.791 59.4718 139.299 59.4718H140.512L140.812 60.588ZM130.811 61.2716L130.451 61.6318L130.494 65.6759C130.54 70.0807 130.549 70.1282 131.396 70.1282C132.329 70.1282 132.336 70.092 132.336 65.5198C132.336 61.3845 132.334 61.3591 132.016 61.1361C131.563 60.8191 131.226 60.8569 130.811 61.2716ZM82.4639 61.2959C82.411 61.3489 82.3678 63.3253 82.3678 65.6878V69.984H83.0779C84.2708 69.984 84.24 70.0996 84.24 65.59C84.24 61.6799 84.2373 61.6464 83.9198 61.4239C83.5996 61.1998 82.6443 61.1156 82.4639 61.2959ZM108.962 64.6558C108.747 66.2002 108.572 67.5124 108.573 67.5718C108.575 67.6312 108.933 67.6798 109.368 67.6798C110.311 67.6798 110.271 68.0173 109.75 64.5122L109.354 61.8478L108.962 64.6558Z" fill="#1493F3"/>
    <path fill-rule="evenodd" clip-rule="evenodd" d="M85.2471 157.814C83.6811 158.291 82.944 159.331 82.944 161.065C82.944 162.827 83.7869 163.716 86.0053 164.294C88.823 165.029 89.377 165.538 88.7647 166.827C88.0292 168.377 84.672 167.79 84.672 166.111C84.672 165.931 84.4765 165.888 83.6455 165.888H82.6194L82.7134 166.477C83.0412 168.526 84.5845 169.562 87.1668 169.465C89.6578 169.373 90.7513 168.412 90.8426 166.237C90.9311 164.123 90.3064 163.494 87.264 162.637C85.1321 162.037 84.787 161.796 84.787 160.905C84.787 159.219 87.7235 159.03 88.4844 160.668L88.7684 161.28H89.6724C90.7443 161.28 90.8323 161.044 90.2372 159.767C89.4748 158.129 87.1727 157.229 85.2471 157.814ZM132.047 157.814C130.481 158.291 129.744 159.331 129.744 161.065C129.744 162.827 130.587 163.716 132.805 164.294C135.623 165.029 136.177 165.538 135.565 166.827C134.829 168.377 131.472 167.79 131.472 166.111C131.472 165.931 131.277 165.888 130.446 165.888H129.419L129.514 166.477C129.841 168.526 131.384 169.562 133.967 169.465C136.455 169.373 137.551 168.411 137.642 166.245C137.736 164.003 137.114 163.463 133.169 162.368C132.043 162.055 131.587 161.641 131.587 160.933C131.587 159.221 134.515 159.012 135.284 160.668L135.569 161.28H136.472C137.544 161.28 137.632 161.044 137.037 159.767C136.275 158.129 133.973 157.229 132.047 157.814ZM41.1183 157.998C40.2667 160.574 37.584 168.9 37.584 168.965C37.584 169.015 38.0608 169.056 38.6429 169.056H39.7019L40.0469 167.905L40.392 166.754L42.3392 166.753L44.2859 166.752L44.5765 167.868L44.867 168.984L45.9772 169.026C46.588 169.049 47.0864 169.017 47.0848 168.954C47.0831 168.891 46.2877 166.378 45.3173 163.368L43.5537 157.896L42.3662 157.854C41.4947 157.824 41.1631 157.861 41.1183 157.998ZM51.408 163.584V169.2H52.4162H53.4238V166.68V164.16H55.4402H57.456V166.68V169.2H58.4642H59.4718V163.584V157.968H58.4642H57.456V160.128V162.288H55.4402H53.4238V160.128V157.968H52.4162H51.408V163.584ZM60.48 158.904V159.84H61.4882H62.4958V158.904V157.968H61.4882H60.48V158.904ZM71.4242 163.584V169.2H72.36H73.2958L73.2969 166.716C73.298 163.239 73.5966 162.432 74.8829 162.432C76.187 162.432 76.3182 162.804 76.3193 166.5L76.3198 169.2H77.2562H78.192V165.933C78.192 162.255 78.0748 161.731 77.1206 161.141C76.0757 160.496 74.3974 160.678 73.7446 161.508C73.3169 162.051 73.2958 161.977 73.2958 159.912V157.968H72.36H71.4242V163.584ZM98.928 163.584V169.2H99.8638H100.8L100.801 166.716C100.802 163.239 101.101 162.432 102.387 162.432C103.691 162.432 103.822 162.804 103.823 166.5L103.824 169.2H104.76H105.696V165.933C105.696 162.924 105.673 162.618 105.398 162.051C104.701 160.611 102.501 160.277 101.342 161.436C101.111 161.667 100.895 161.856 100.861 161.856C100.827 161.856 100.8 160.981 100.8 159.912V157.968H99.8638H98.928V163.584ZM123.12 163.584V169.2H124.056H124.992V163.584V157.968H124.056H123.12V163.584ZM138.385 162.684C138.386 168.366 138.828 169.338 141.408 169.338C143.545 169.338 144.429 168.128 144.431 165.204L144.432 163.728H143.568H142.704V165.029C142.704 167.018 142.18 167.843 141.134 167.504C140.443 167.28 140.256 166.622 140.256 164.412L140.256 162.432H142.344H144.432V161.712V160.992H142.344H140.256V159.84V158.688H139.32H138.384L138.385 162.684ZM157.681 162.684C157.682 168.366 158.123 169.338 160.704 169.338C162.841 169.338 163.726 168.128 163.727 165.204L163.728 163.728H162.864H162V165.029C162 167.018 161.476 167.843 160.43 167.504C159.739 167.28 159.553 166.622 159.552 164.412V162.432H161.64H163.728V161.712V160.992H161.64H159.552V159.84V158.688H158.616H157.68L157.681 162.684ZM42.9683 162.396C43.2761 163.485 43.5591 164.489 43.5969 164.628C43.6585 164.854 43.5332 164.88 42.3527 164.88C41.6308 164.88 41.0378 164.831 41.0351 164.772C41.0254 164.551 42.255 160.416 42.3301 160.416C42.3733 160.416 42.66 161.307 42.9683 162.396ZM65.6338 160.847C62.694 161.733 62.3479 167.63 65.1602 168.928C66.2164 169.415 67.8478 169.187 68.283 168.491C68.708 167.809 68.8851 169.176 68.492 170.105C67.8191 171.694 65.3648 171.651 65.0117 170.044C64.9242 169.646 64.8918 169.632 64.0499 169.632H63.1795L63.274 170.223C63.8145 173.605 68.8052 174.163 70.2286 171C70.4581 170.49 70.4932 169.879 70.5332 165.708L70.578 160.992H69.633H68.688V161.424C68.688 161.959 68.6945 161.96 68.0713 161.372C67.4055 160.744 66.5707 160.564 65.6338 160.847ZM93.8542 160.848C90.7259 161.789 90.5634 167.839 93.6311 169.12C95.2036 169.777 97.113 169.032 97.9328 167.442C98.4684 166.402 98.3507 166.176 97.2718 166.176C96.4407 166.176 96.336 166.207 96.336 166.456C96.336 167.458 94.763 167.966 94.0442 167.197C93.0409 166.123 93.1381 163.406 94.2073 162.657C94.898 162.173 96.1249 162.636 96.2858 163.44C96.3716 163.869 96.3776 163.872 97.3582 163.872H98.3448L98.2557 163.404C97.882 161.444 95.8306 160.253 93.8542 160.848ZM109.368 160.83C105.243 161.918 105.744 168.971 109.97 169.311C112.55 169.517 114.108 167.904 114.112 165.024C114.115 161.996 112.008 160.133 109.368 160.83ZM117.576 160.83C113.451 161.918 113.952 168.971 118.178 169.311C120.758 169.517 122.316 167.904 122.32 165.024C122.323 161.996 120.216 160.133 117.576 160.83ZM147.189 160.919C146.159 161.24 145.663 161.815 145.454 162.934L145.333 163.584L146.215 163.581C147.066 163.578 147.104 163.562 147.312 163.113C147.709 162.259 148.948 162.052 149.624 162.728C150.315 163.42 149.778 163.961 148.057 164.306C145.88 164.743 145.277 165.267 145.179 166.807C145.036 169.05 147.308 170.194 149.294 168.88L149.876 168.494L149.965 168.847C150.047 169.172 150.121 169.2 150.915 169.2H151.776L151.775 166.14C151.775 164.347 151.708 162.842 151.615 162.505C151.208 161.039 149.159 160.304 147.189 160.919ZM155.724 160.909C155.479 161.015 155.146 161.272 154.983 161.479C154.601 161.964 154.512 161.954 154.512 161.424V160.992H153.648H152.784V165.096V169.2H153.708H154.633L154.68 166.644C154.742 163.344 154.978 162.864 156.535 162.864H157.104V161.784V160.704L156.636 160.709C156.379 160.713 155.968 160.802 155.724 160.909ZM175.448 160.91C175.202 161.017 174.829 161.29 174.62 161.515L174.24 161.925V161.458V160.992H173.304H172.368V167.04V173.088H173.304H174.24V170.625V168.162L174.76 168.619C177.028 170.61 179.471 168.827 179.488 165.168C179.504 161.944 177.623 159.963 175.448 160.91ZM60.48 165.096V169.2H61.4882H62.4958V165.096V160.992H61.4882H60.48V165.096ZM164.593 163.908C164.594 167.031 164.692 167.69 165.273 168.459C166.162 169.637 168.12 169.652 169.099 168.489L169.488 168.026V168.613V169.2H170.424H171.36V165.096V160.992H170.437H169.515L169.463 163.692C169.398 167.037 169.155 167.616 167.816 167.616C166.668 167.616 166.464 167.02 166.464 163.66V160.992H165.528H164.592L164.593 163.908ZM111.432 162.818C112.177 163.29 112.507 165.55 111.98 166.57C111.198 168.08 109.186 167.932 108.706 166.33C107.942 163.779 109.594 161.652 111.432 162.818ZM119.64 162.818C120.385 163.29 120.715 165.55 120.188 166.57C119.406 168.08 117.394 167.932 116.914 166.33C116.15 163.779 117.802 161.652 119.64 162.818ZM176.744 162.733C177.996 163.718 177.933 166.756 176.646 167.422C175.323 168.106 174.24 167.026 174.24 165.024C174.24 162.94 175.519 161.769 176.744 162.733ZM67.9396 162.934C69.0417 163.861 68.884 166.777 67.6987 167.39C65.9961 168.271 64.5656 165.831 65.4653 163.582C65.8724 162.565 67.1144 162.24 67.9396 162.934ZM149.904 165.782C149.904 167.309 148.206 168.51 147.312 167.616C146.593 166.897 147.163 165.909 148.472 165.602C148.903 165.501 149.353 165.364 149.472 165.298C149.847 165.088 149.904 165.152 149.904 165.782Z" fill="#050505"/>
    <path fill-rule="evenodd" clip-rule="evenodd" d="M60.9482 157.929C61.2452 157.96 61.7312 157.96 62.0282 157.929C62.3252 157.898 62.0822 157.872 61.4882 157.872C60.8942 157.872 60.6512 157.898 60.9482 157.929ZM72.3962 157.929L73.2958 157.981V159.919C73.2958 160.984 73.3444 161.856 73.4038 161.856C73.4632 161.856 73.4794 160.965 73.44 159.876L73.3682 157.896L72.4318 157.886L71.496 157.877L72.3962 157.929ZM99.9 157.929L100.8 157.981V159.919C100.8 160.984 100.849 161.856 100.908 161.856C100.968 161.856 100.984 160.965 100.944 159.876L100.872 157.896L99.9362 157.886L98.9998 157.877L99.9 157.929ZM124.09 157.929L124.987 157.981L125.029 161.898L125.071 165.816L125.067 161.856L125.064 157.896L124.128 157.886L123.192 157.877L124.09 157.929ZM59.5377 163.584C59.5377 166.713 59.5566 167.992 59.5798 166.428C59.603 164.864 59.603 162.304 59.5798 160.74C59.5566 159.176 59.5377 160.456 59.5377 163.584ZM61.0168 160.952C61.2722 160.984 61.7258 160.984 62.0249 160.953C62.3236 160.922 62.1146 160.896 61.56 160.895C61.0054 160.895 60.7613 160.92 61.0168 160.952ZM68.6243 161.028C68.4655 161.55 68.4412 161.856 68.5573 161.856C68.6291 161.856 68.688 161.665 68.688 161.431C68.688 161.006 68.6907 161.005 69.66 160.955L70.632 160.904L69.6557 160.876C68.9791 160.857 68.6621 160.903 68.6243 161.028ZM141.307 160.955C141.924 160.982 142.896 160.982 143.467 160.955C144.037 160.928 143.532 160.905 142.344 160.905C141.156 160.906 140.689 160.928 141.307 160.955ZM153.612 160.951C154.5 161.005 154.512 161.011 154.512 161.431C154.512 161.665 154.569 161.856 154.638 161.856C154.707 161.856 154.721 161.645 154.668 161.388L154.573 160.92L153.642 160.908L152.712 160.896L153.612 160.951ZM160.602 160.955C161.22 160.982 162.192 160.982 162.762 160.955C163.333 160.928 162.828 160.905 161.64 160.905C160.452 160.906 159.985 160.928 160.602 160.955ZM165.561 160.952L166.458 161.005L166.501 163.698L166.545 166.392L166.541 163.656L166.536 160.92L165.6 160.91L164.664 160.901L165.561 160.952ZM169.408 161.033C169.369 161.135 169.356 162.286 169.38 163.59L169.424 165.96L169.456 163.483L169.488 161.005L170.46 160.955L171.432 160.904L170.455 160.876C169.77 160.856 169.458 160.903 169.408 161.033ZM172.761 160.952C173.017 160.984 173.47 160.984 173.769 160.953C174.067 160.922 173.858 160.896 173.304 160.895C172.75 160.895 172.505 160.92 172.761 160.952ZM76.2367 166.392C76.2361 167.976 76.2572 168.644 76.2831 167.876C76.309 167.108 76.309 165.812 76.2836 164.996C76.2577 164.179 76.2367 164.808 76.2367 166.392ZM103.74 166.392C103.74 167.976 103.762 168.644 103.787 167.876C103.813 167.108 103.813 165.812 103.787 164.996C103.762 164.179 103.74 164.808 103.74 166.392ZM73.3433 164.952C73.3439 165.506 73.3698 165.716 73.4011 165.417C73.4324 165.118 73.4319 164.664 73.4 164.409C73.3682 164.153 73.3428 164.398 73.3433 164.952ZM100.846 164.88C100.846 165.395 100.872 165.606 100.904 165.348C100.936 165.09 100.936 164.669 100.904 164.412C100.872 164.155 100.846 164.365 100.846 164.88ZM154.699 165.168C154.699 165.603 154.726 165.782 154.759 165.564C154.792 165.346 154.792 164.99 154.759 164.772C154.726 164.554 154.699 164.732 154.699 165.168ZM90.9031 166.032C90.9031 166.389 90.9311 166.534 90.9657 166.356C90.9997 166.178 90.9997 165.886 90.9657 165.708C90.9311 165.53 90.9031 165.676 90.9031 166.032ZM137.703 166.032C137.703 166.389 137.731 166.534 137.766 166.356C137.8 166.178 137.8 165.886 137.766 165.708C137.731 165.53 137.703 165.676 137.703 166.032ZM68.512 168.804C68.5897 169.813 68.6534 169.899 68.6713 169.02C68.6804 168.565 68.6378 168.192 68.5762 168.192C68.5147 168.192 68.4855 168.468 68.512 168.804ZM86.5798 169.587C86.7186 169.624 86.9454 169.624 87.0842 169.587C87.2224 169.551 87.109 169.522 86.832 169.522C86.555 169.522 86.4416 169.551 86.5798 169.587ZM133.453 169.59C133.633 169.624 133.892 169.623 134.03 169.587C134.167 169.551 134.021 169.523 133.704 169.524C133.387 169.526 133.275 169.555 133.453 169.59Z" fill="#747474"/>
    <path fill-rule="evenodd" clip-rule="evenodd" d="M51.3297 163.584C51.3297 166.713 51.3486 167.992 51.3718 166.428C51.395 164.864 51.395 162.304 51.3718 160.74C51.3486 159.176 51.3297 160.456 51.3297 163.584ZM54.4682 162.251C55.0028 162.279 55.8776 162.279 56.4122 162.251C56.9468 162.223 56.5094 162.2 55.4402 162.2C54.371 162.2 53.9336 162.223 54.4682 162.251ZM142.605 165.384C142.605 165.859 142.632 166.036 142.664 165.777C142.697 165.519 142.696 165.13 142.663 164.913C142.63 164.697 142.604 164.909 142.605 165.384ZM161.899 165.456C161.899 165.892 161.926 166.07 161.959 165.852C161.992 165.634 161.992 165.278 161.959 165.06C161.926 164.842 161.899 165.02 161.899 165.456ZM100.851 166.968C100.851 167.681 100.875 167.991 100.905 167.656C100.935 167.322 100.936 166.739 100.906 166.36C100.876 165.982 100.851 166.255 100.851 166.968ZM73.3477 167.184C73.3477 167.936 73.372 168.244 73.4017 167.868C73.4314 167.492 73.4314 166.876 73.4017 166.5C73.372 166.124 73.3477 166.432 73.3477 167.184ZM125.042 167.04C125.042 167.713 125.067 167.989 125.097 167.652C125.128 167.315 125.128 166.764 125.097 166.428C125.067 166.092 125.042 166.367 125.042 167.04ZM154.706 167.04C154.706 167.713 154.731 167.989 154.761 167.652C154.792 167.315 154.792 166.764 154.761 166.428C154.731 166.092 154.706 166.367 154.706 167.04Z" fill="#7C7C7C"/>
    <path fill-rule="evenodd" clip-rule="evenodd" d="M103.5 27.1739C103.678 27.2079 103.97 27.2079 104.148 27.1739C104.326 27.1393 104.181 27.1112 103.824 27.1112C103.468 27.1112 103.322 27.1393 103.5 27.1739ZM111.78 27.1712C111.919 27.2074 112.146 27.2074 112.284 27.1712C112.423 27.135 112.309 27.1053 112.032 27.1053C111.755 27.1053 111.641 27.135 111.78 27.1712ZM92.34 44.1704C92.7952 44.199 93.5404 44.199 93.9962 44.1704C94.4514 44.1418 94.0788 44.1185 93.1678 44.1185C92.2574 44.1185 91.8848 44.1418 92.34 44.1704ZM101.844 44.1715C102.537 44.1974 103.671 44.1974 104.364 44.1715C105.057 44.145 104.49 44.1234 103.104 44.1234C101.718 44.1234 101.151 44.145 101.844 44.1715ZM111.208 44.1698C111.587 44.1995 112.17 44.1995 112.504 44.1693C112.838 44.1391 112.529 44.1148 111.816 44.1153C111.103 44.1153 110.83 44.1401 111.208 44.1698ZM118.908 44.1682C119.166 44.2001 119.587 44.2001 119.844 44.1682C120.101 44.1364 119.891 44.1099 119.376 44.1099C118.861 44.1099 118.65 44.1364 118.908 44.1682ZM122.76 44.1493C123.444 44.2595 124.416 44.2735 124.416 44.1731C124.416 44.1131 123.979 44.0726 123.444 44.0834C122.909 44.0942 122.602 44.1239 122.76 44.1493ZM93.636 45.7472C93.7748 45.7834 94.0016 45.7834 94.1398 45.7472C94.2786 45.711 94.1652 45.6813 93.8882 45.6813C93.6106 45.6813 93.4972 45.711 93.636 45.7472ZM102.478 45.7558C102.441 45.8152 102.907 45.8465 103.513 45.8249C105.448 45.7564 105.67 45.697 104.084 45.6721C103.238 45.6592 102.515 45.6964 102.478 45.7558ZM95.0886 47.52C95.0886 48.114 95.114 48.357 95.1448 48.06C95.1761 47.763 95.1761 47.277 95.1448 46.98C95.114 46.683 95.0886 46.926 95.0886 47.52ZM103.068 50.5057C103.405 50.5359 103.955 50.5359 104.292 50.5057C104.629 50.4749 104.353 50.4506 103.68 50.4506C103.007 50.4506 102.731 50.4749 103.068 50.5057ZM102.383 54.0362C102.384 54.0956 103.113 54.1328 104.004 54.1199C105.667 54.095 105.472 54.0362 103.5 53.9671C102.886 53.9455 102.383 53.9768 102.383 54.0362ZM100.62 59.2855C100.798 59.3201 101.09 59.3201 101.268 59.2855C101.446 59.2515 101.3 59.2234 100.944 59.2234C100.587 59.2234 100.442 59.2515 100.62 59.2855ZM89.2015 59.6533C89.1632 59.7526 89.1502 62.0044 89.1718 64.6569L89.2118 69.4802L89.2458 64.5548L89.2798 59.629L90.2518 59.5787L91.2238 59.5285L90.2475 59.5004C89.5741 59.481 89.2496 59.528 89.2015 59.6533ZM93.7078 59.576C93.9654 59.6079 94.3866 59.6079 94.6442 59.576C94.9012 59.5442 94.6906 59.5183 94.176 59.5183C93.6614 59.5183 93.4508 59.5442 93.7078 59.576ZM123.369 59.576C123.624 59.6079 124.078 59.6084 124.377 59.5771C124.676 59.5458 124.466 59.5199 123.912 59.5193C123.358 59.5188 123.113 59.5442 123.369 59.576ZM138.636 59.5777C138.973 59.6079 139.524 59.6079 139.86 59.5777C140.196 59.5469 139.921 59.5226 139.248 59.5226C138.575 59.5226 138.299 59.5469 138.636 59.5777ZM142.959 59.5766C143.217 59.6084 143.606 59.6079 143.823 59.575C144.039 59.542 143.827 59.5156 143.352 59.5166C142.877 59.5172 142.7 59.5442 142.959 59.5766ZM116.129 66.528C116.129 69.498 116.149 70.713 116.172 69.228C116.195 67.743 116.195 65.313 116.172 63.828C116.149 62.343 116.129 63.558 116.129 66.528ZM98.1272 65.5922C98.1272 67.7306 98.1472 68.6254 98.1715 67.5805C98.1963 66.5361 98.1963 64.7865 98.1715 63.6925C98.1472 62.599 98.1272 63.4538 98.1272 65.5922ZM139.68 67.392C139.68 69.8738 139.71 71.8735 139.748 71.8362C139.845 71.739 139.857 63.0569 139.76 62.9602C139.716 62.9159 139.68 64.9102 139.68 67.392ZM102.082 63.5477C102.146 63.6115 102.58 63.6433 103.047 63.6179L103.896 63.5726L102.93 63.5024C102.4 63.4635 102.017 63.484 102.082 63.5477ZM82.694 70.0871C82.9127 70.1206 83.2367 70.1195 83.4138 70.0855C83.5909 70.051 83.4122 70.024 83.0158 70.025C82.62 70.0261 82.4753 70.0542 82.694 70.0871ZM32.4362 98.5678C32.4378 98.8848 32.4675 98.9977 32.5021 98.8184C32.5361 98.6391 32.535 98.3799 32.4988 98.2422C32.4626 98.1045 32.4346 98.2514 32.4362 98.5678ZM183.493 98.5678C183.494 98.8848 183.523 98.9977 183.558 98.8184C183.592 98.6391 183.591 98.3799 183.555 98.2422C183.519 98.1045 183.491 98.2514 183.493 98.5678ZM32.4394 106.848C32.4394 107.205 32.4675 107.35 32.5015 107.172C32.5361 106.994 32.5361 106.702 32.5015 106.524C32.4675 106.346 32.4394 106.492 32.4394 106.848ZM183.495 106.848C183.495 107.205 183.523 107.35 183.558 107.172C183.592 106.994 183.592 106.702 183.558 106.524C183.523 106.346 183.495 106.492 183.495 106.848ZM132.491 116.468C132.485 116.58 132.406 116.613 132.3 116.549C132.191 116.484 132.204 116.544 132.331 116.7C132.546 116.966 132.713 116.801 132.575 116.46C132.519 116.321 132.5 116.324 132.491 116.468ZM95.9154 116.9C95.9089 117.012 95.8306 117.045 95.7242 116.981C95.6156 116.916 95.6275 116.976 95.755 117.132C95.9704 117.398 96.1373 117.233 95.9996 116.892C95.9434 116.753 95.924 116.756 95.9154 116.9ZM71.3345 159.408C71.3345 160.319 71.3578 160.692 71.3864 160.236C71.415 159.781 71.415 159.035 71.3864 158.58C71.3578 158.124 71.3345 158.497 71.3345 159.408ZM57.3696 160.056C57.3696 161.244 57.3923 161.711 57.4193 161.093C57.4463 160.476 57.4463 159.504 57.4187 158.933C57.3917 158.363 57.3696 158.868 57.3696 160.056ZM98.8357 160.128C98.8357 160.881 98.86 161.188 98.8897 160.812C98.9194 160.436 98.9194 159.82 98.8897 159.444C98.86 159.068 98.8357 159.376 98.8357 160.128ZM123.034 160.92C123.034 162.108 123.056 162.575 123.083 161.957C123.11 161.34 123.11 160.368 123.083 159.797C123.056 159.227 123.034 159.732 123.034 160.92ZM138.303 162.648C138.303 164.786 138.323 165.681 138.347 164.637C138.372 163.592 138.372 161.842 138.347 160.749C138.323 159.655 138.303 160.51 138.303 162.648ZM157.581 159.624C157.581 160.099 157.608 160.276 157.641 160.018C157.672 159.758 157.672 159.37 157.639 159.154C157.606 158.937 157.58 159.149 157.581 159.624ZM94.6442 160.659C94.7824 160.695 95.0092 160.695 95.148 160.659C95.2868 160.623 95.1734 160.593 94.8958 160.593C94.6188 160.593 94.5054 160.623 94.6442 160.659ZM148.356 160.659C148.495 160.695 148.721 160.695 148.86 160.659C148.998 160.623 148.885 160.593 148.608 160.593C148.331 160.593 148.218 160.623 148.356 160.659ZM156.774 160.663C157.061 160.716 157.097 160.823 157.143 161.757L157.194 162.792L157.185 161.712C157.176 160.662 157.166 160.632 156.816 160.618C156.515 160.606 156.508 160.614 156.774 160.663ZM157.584 161.712C157.584 162.306 157.61 162.549 157.641 162.252C157.672 161.955 157.672 161.469 157.641 161.172C157.61 160.875 157.584 161.118 157.584 161.712ZM70.6239 165.168C70.6239 167.584 70.6439 168.572 70.6676 167.364C70.6919 166.156 70.6919 164.18 70.6676 162.972C70.6439 161.764 70.6239 162.752 70.6239 165.168ZM71.3426 164.808C71.3426 166.867 71.3632 167.689 71.3875 166.635C71.4123 165.581 71.4123 163.896 71.3875 162.892C71.3626 161.887 71.3426 162.749 71.3426 164.808ZM152.703 164.736C152.703 166.756 152.723 167.582 152.748 166.572C152.772 165.562 152.772 163.91 152.748 162.9C152.723 161.89 152.703 162.717 152.703 164.736ZM164.491 161.856C164.491 162.292 164.518 162.47 164.551 162.252C164.584 162.034 164.584 161.678 164.551 161.46C164.518 161.242 164.491 161.421 164.491 161.856ZM172.29 167.04C172.29 170.327 172.309 171.671 172.332 170.028C172.355 168.384 172.355 165.695 172.332 164.052C172.309 162.409 172.29 163.753 172.29 167.04ZM89.1718 161.385C89.4688 161.416 89.9548 161.416 90.2518 161.385C90.5488 161.354 90.3058 161.328 89.7118 161.328C89.1178 161.328 88.8748 161.354 89.1718 161.385ZM135.972 161.385C136.269 161.416 136.755 161.416 137.052 161.385C137.349 161.354 137.106 161.328 136.512 161.328C135.918 161.328 135.675 161.354 135.972 161.385ZM141.372 162.539C141.946 162.566 142.886 162.566 143.46 162.539C144.034 162.511 143.564 162.489 142.416 162.489C141.268 162.489 140.798 162.511 141.372 162.539ZM160.668 162.539C161.242 162.566 162.182 162.566 162.756 162.539C163.33 162.511 162.86 162.489 161.712 162.489C160.564 162.489 160.094 162.511 160.668 162.539ZM123.019 164.016C123.019 164.452 123.046 164.63 123.079 164.412C123.112 164.194 123.112 163.838 123.079 163.62C123.046 163.402 123.019 163.581 123.019 164.016ZM157.59 164.88C157.59 165.791 157.614 166.163 157.642 165.708C157.671 165.252 157.671 164.507 157.642 164.052C157.614 163.597 157.59 163.969 157.59 164.88ZM146.304 163.584L145.368 163.678L146.26 163.703C146.75 163.717 147.191 163.663 147.24 163.584C147.289 163.505 147.309 163.451 147.284 163.465C147.26 163.479 146.819 163.532 146.304 163.584ZM54.6896 164.267C55.188 164.295 55.9656 164.295 56.4176 164.266C56.8701 164.238 56.4624 164.215 55.512 164.215C54.5616 164.215 54.1917 164.238 54.6896 164.267ZM57.3712 166.752C57.3712 168.138 57.3928 168.705 57.4193 168.012C57.4457 167.319 57.4457 166.185 57.4193 165.492C57.3928 164.799 57.3712 165.366 57.3712 166.752ZM91.3324 164.952C91.334 165.269 91.3632 165.381 91.3977 165.202C91.4323 165.023 91.4312 164.764 91.395 164.627C91.3588 164.489 91.3308 164.635 91.3324 164.952ZM164.493 165.24C164.493 165.715 164.52 165.892 164.553 165.634C164.584 165.374 164.584 164.986 164.551 164.77C164.518 164.553 164.492 164.765 164.493 165.24ZM65.2655 165.024C65.2655 165.301 65.2952 165.414 65.3314 165.276C65.3675 165.137 65.3675 164.911 65.3314 164.772C65.2952 164.634 65.2655 164.747 65.2655 165.024ZM98.8254 165.24C98.8265 165.636 98.854 165.781 98.8875 165.562C98.9205 165.343 98.9194 165.019 98.8854 164.842C98.8513 164.665 98.8243 164.844 98.8254 165.24ZM122.436 165.096C122.438 165.413 122.467 165.526 122.502 165.346C122.536 165.167 122.535 164.908 122.499 164.77C122.463 164.633 122.435 164.779 122.436 165.096ZM123.027 167.256C123.027 167.969 123.051 168.279 123.081 167.944C123.111 167.61 123.112 167.027 123.082 166.648C123.053 166.27 123.028 166.543 123.027 167.256ZM169.306 168.3C169.276 168.36 169.297 168.603 169.353 168.84C169.452 169.265 169.454 169.263 169.471 168.732C169.487 168.219 169.427 168.062 169.306 168.3Z" fill="#BDD0E0"/>
    <path fill-rule="evenodd" clip-rule="evenodd" d="M86.2202 157.638C86.3984 157.672 86.69 157.672 86.8682 157.638C87.0464 157.603 86.9006 157.575 86.5442 157.575C86.1878 157.575 86.042 157.603 86.2202 157.638ZM133.02 157.638C133.198 157.672 133.49 157.672 133.668 157.638C133.846 157.603 133.7 157.575 133.344 157.575C132.987 157.575 132.842 157.603 133.02 157.638ZM53.4816 160.056C53.4816 161.244 53.5043 161.711 53.5313 161.093C53.5583 160.476 53.5583 159.504 53.5307 158.933C53.5037 158.363 53.4816 158.868 53.4816 160.056ZM138.338 158.646C138.298 158.709 138.711 158.738 139.255 158.712L140.243 158.665L140.295 159.757L140.348 160.849L140.338 159.733L140.328 158.616L139.369 158.574C138.84 158.55 138.377 158.583 138.338 158.646ZM157.634 158.646C157.595 158.709 158.007 158.738 158.551 158.712L159.539 158.665L159.592 159.757L159.643 160.849L159.634 159.733L159.624 158.616L158.664 158.574C158.137 158.55 157.673 158.583 157.634 158.646ZM86.4362 159.651C86.5744 159.688 86.8012 159.688 86.94 159.651C87.0788 159.615 86.9654 159.586 86.6878 159.586C86.4108 159.586 86.2974 159.615 86.4362 159.651ZM60.9482 159.945C61.2452 159.976 61.7312 159.976 62.0282 159.945C62.3252 159.914 62.0822 159.889 61.4882 159.889C60.8942 159.889 60.6512 159.914 60.9482 159.945ZM144.476 161.64C144.478 162.115 144.505 162.292 144.536 162.033C144.568 161.775 144.568 161.386 144.535 161.169C144.502 160.953 144.476 161.165 144.476 161.64ZM163.773 161.64C163.773 162.115 163.8 162.292 163.832 162.033C163.865 161.775 163.864 161.386 163.831 161.169C163.798 160.953 163.772 161.165 163.773 161.64ZM140.311 164.304C140.311 165.294 140.335 165.699 140.363 165.204C140.391 164.709 140.391 163.899 140.363 163.404C140.335 162.909 140.311 163.314 140.311 164.304ZM159.607 164.304C159.607 165.294 159.63 165.699 159.659 165.204C159.687 164.709 159.687 163.899 159.659 163.404C159.63 162.909 159.607 163.314 159.607 164.304ZM78.2536 166.104C78.2536 167.847 78.2741 168.539 78.2995 167.644C78.3248 166.749 78.3248 165.323 78.2995 164.476C78.2741 163.629 78.253 164.361 78.2536 166.104ZM105.757 166.104C105.757 167.847 105.778 168.539 105.804 167.644C105.829 166.749 105.829 165.323 105.803 164.476C105.778 163.629 105.757 164.361 105.757 166.104ZM151.836 165.888C151.836 167.353 151.857 167.952 151.883 167.22C151.91 166.487 151.91 165.289 151.883 164.556C151.857 163.824 151.836 164.423 151.836 165.888ZM144.485 165.096C144.485 165.888 144.509 166.194 144.539 165.775C144.568 165.357 144.567 164.709 144.537 164.335C144.508 163.962 144.484 164.304 144.485 165.096ZM163.78 165.096C163.781 165.888 163.805 166.194 163.834 165.775C163.864 165.357 163.863 164.709 163.834 164.335C163.804 163.962 163.78 164.304 163.78 165.096ZM53.4838 166.68C53.4838 168.106 53.5054 168.67 53.5313 167.933C53.5577 167.196 53.5572 166.029 53.5313 165.341C53.5048 164.652 53.4832 165.255 53.4838 166.68ZM68.5832 165.168C68.5832 165.525 68.6113 165.67 68.6459 165.492C68.6799 165.314 68.6799 165.022 68.6459 164.844C68.6113 164.666 68.5832 164.812 68.5832 165.168ZM106.452 165.096C106.454 165.413 106.483 165.526 106.518 165.346C106.552 165.167 106.551 164.908 106.515 164.77C106.479 164.633 106.451 164.779 106.452 165.096ZM114.66 165.096C114.662 165.413 114.691 165.526 114.726 165.346C114.76 165.167 114.759 164.908 114.723 164.77C114.687 164.633 114.659 164.779 114.66 165.096ZM41.6561 164.842C42.0347 164.872 42.6179 164.871 42.9521 164.841C43.2864 164.811 42.977 164.787 42.2642 164.787C41.5514 164.787 41.2776 164.812 41.6561 164.842ZM82.6081 165.84C82.5552 165.893 82.5131 166.006 82.5142 166.092C82.5158 166.19 82.5574 166.184 82.6259 166.075C82.6886 165.977 83.1697 165.88 83.74 165.851L84.7438 165.801L83.7238 165.772C83.1632 165.757 82.661 165.787 82.6081 165.84ZM129.408 165.84C129.355 165.893 129.313 166.006 129.314 166.092C129.315 166.19 129.358 166.184 129.426 166.075C129.489 165.977 129.97 165.88 130.54 165.851L131.544 165.801L130.524 165.772C129.963 165.757 129.461 165.787 129.408 165.84ZM174.272 170.688L174.24 173.112L173.245 173.064C172.698 173.038 172.281 173.065 172.318 173.124C172.439 173.319 174.242 173.249 174.32 173.046C174.36 172.944 174.372 171.826 174.348 170.562L174.304 168.264L174.272 170.688ZM66.2056 169.302C66.3849 169.336 66.6441 169.335 66.7818 169.299C66.9195 169.263 66.7726 169.235 66.4562 169.237C66.1392 169.238 66.0263 169.267 66.2056 169.302Z" fill="#ACACAC"/>
</svg>
