<svg width="910" height="686" viewBox="0 0 910 686" fill="none" xmlns="http://www.w3.org/2000/svg">
    <title>Peak Education | Modern SVG</title>
    <g clip-path="url(#clip0)">
        <path d="M874 632H0V62L741 197L874 632Z" fill="#373737"/>
        <path d="M302.251 595H112.646C112.646 595 108.802 538.631 131.542 537.99C154.282 537.35 151.72 562.972 180.225 527.741C208.73 492.51 243.32 494.432 247.804 515.25C252.288 536.069 239.156 552.723 263.177 547.599C287.198 542.474 321.788 555.926 302.251 595Z" fill="#D0CDE1"/>
        <path d="M204.248 595.013L203.608 594.987C205.1 557.874 212.873 534.029 219.131 520.56C225.925 505.936 232.472 500.016 232.538 499.958L232.963 500.436C232.899 500.494 226.428 506.355 219.688 520.88C213.465 534.292 205.735 558.039 204.248 595.013Z" fill="#F2F2F2"/>
        <path d="M272.871 595.09L272.256 594.911C277.024 579.181 285.62 564.881 297.273 553.29L297.703 553.764C286.137 565.274 277.605 579.473 272.871 595.09Z" fill="#F2F2F2"/>
        <path d="M142.509 595.044L141.875 594.956C143.942 581.042 141.755 566.827 135.6 554.178C133.075 548.873 129.733 543.997 125.696 539.727L126.14 539.265C130.229 543.587 133.615 548.523 136.174 553.895C142.386 566.659 144.594 581.003 142.509 595.044V595.044Z" fill="#F2F2F2"/>
        <path d="M910 595H34V23H910V595ZM36 593H908V25H36V593Z" fill="#0087FD"/>
        <path d="M332.072 595.298H80.4134L80.3553 594.446C80.2107 592.325 77.0003 542.302 93.2086 524.454C94.8167 522.568 96.8018 521.04 99.036 519.968C101.27 518.896 103.704 518.304 106.181 518.229C116.746 517.929 123.386 521.886 128.741 525.062C138.834 531.05 145.503 535.006 169.747 505.041C196.011 472.58 224.348 465.596 240.639 469.479C251.164 471.989 258.419 479.081 260.542 488.939C262.552 498.273 261.912 507.043 261.398 514.09C260.847 521.631 260.412 527.586 263.509 530.285C266.094 532.537 271.254 532.742 279.747 530.93C297.021 527.245 321.124 530.398 333.222 546.029C339.731 554.439 344.859 569.725 332.325 594.793L332.072 595.298ZM82.1308 593.469H330.94C340.28 574.521 340.571 558.513 331.776 547.149C320.677 532.809 297.393 529.035 280.128 532.719C270.901 534.687 265.403 534.362 262.307 531.664C258.521 528.365 258.985 522.007 259.573 513.957C260.079 507.027 260.709 498.401 258.754 489.324C256.785 480.183 250.028 473.598 240.215 471.259C224.444 467.496 196.898 474.392 171.169 506.192C145.931 537.385 138.328 532.876 127.808 526.635C122.387 523.42 116.231 519.774 106.233 520.057C104.003 520.129 101.812 520.666 99.8025 521.635C97.7925 522.604 96.0077 523.983 94.5626 525.683C79.9954 541.724 81.774 586.707 82.1308 593.469Z" fill="#0087FD"/>
        <path d="M306.388 266.344H127.261V268.356H306.388V266.344Z" fill="#0087FD"/>
        <path d="M306.388 280.432H127.261V282.445H306.388V280.432Z" fill="#0087FD"/>
        <path d="M306.388 294.521H127.261V296.533H306.388V294.521Z" fill="#0087FD"/>
        <path d="M306.388 201.711H127.261V203.724H306.388V201.711Z" fill="#0087FD"/>
        <path d="M306.388 215.8H127.261V217.812H306.388V215.8Z" fill="#0087FD"/>
        <path d="M306.388 229.888H127.261V231.901H306.388V229.888Z" fill="#0087FD"/>
        <path d="M171.194 151.157H130.904V183.893H171.194V151.157Z" fill="#D0CDE1"/>
        <path d="M165.319 178.857H123.35V144.442H165.319V178.857ZM125.028 177.178H163.64V146.121H125.028V177.178Z" fill="#0087FD"/>
        <path d="M91 170C95.4183 170 99 166.418 99 162C99 157.582 95.4183 154 91 154C86.5817 154 83 157.582 83 162C83 166.418 86.5817 170 91 170Z" fill="#D0CDE1"/>
        <path d="M536.388 496.344H357.261V498.356H536.388V496.344Z" fill="#0087FD"/>
        <path d="M536.388 510.432H357.261V512.445H536.388V510.432Z" fill="#0087FD"/>
        <path d="M536.388 524.521H357.261V526.533H536.388V524.521Z" fill="#0087FD"/>
        <path d="M536.388 431.711H357.261V433.724H536.388V431.711Z" fill="#0087FD"/>
        <path d="M536.388 445.8H357.261V447.812H536.388V445.8Z" fill="#0087FD"/>
        <path d="M536.388 459.888H357.261V461.901H536.388V459.888Z" fill="#0087FD"/>
        <path d="M401.194 381.157H360.904V413.893H401.194V381.157Z" fill="#D0CDE1"/>
        <path d="M395.319 408.856H353.35V374.442H395.319V408.856ZM355.028 407.178H393.64V376.121H355.028V407.178Z" fill="#0087FD"/>
        <path d="M321 400C325.418 400 329 396.418 329 392C329 387.582 325.418 384 321 384C316.582 384 313 387.582 313 392C313 396.418 316.582 400 321 400Z" fill="#D0CDE1"/>
        <path d="M736.337 66.3546L755.632 113.85L767.506 146.503L798.675 100.492C798.675 100.492 779.38 81.1968 779.38 55.9651L736.337 66.3546Z" fill="#A0616A"/>
        <path d="M678.453 570.991L669.547 615.517L694.779 636.296L705.169 570.991H678.453Z" fill="#A0616A"/>
        <path d="M823.907 560.601L820.938 614.033L846.17 609.58L849.138 563.569L823.907 560.601Z" fill="#A0616A"/>
        <path d="M757.859 90.8444C776.712 90.8444 791.996 75.5606 791.996 56.7072C791.996 37.8538 776.712 22.5701 757.859 22.5701C739.005 22.5701 723.721 37.8538 723.721 56.7072C723.721 75.5606 739.005 90.8444 757.859 90.8444Z" fill="#A0616A"/>
        <path d="M835.78 198.45C835.78 198.45 847.654 302.346 838.749 302.346C829.843 302.346 786.801 293.441 777.896 286.02C768.99 278.598 740.79 281.567 740.79 281.567C740.79 281.567 720.011 297.893 709.621 288.988C699.232 280.083 717.043 176.187 717.043 176.187L712.59 112.365C712.59 112.365 731.885 106.429 740.79 115.334L743.506 112.113L751.224 103L763.053 113.85L763.187 114.354L767.506 130.176C767.506 130.176 773.829 108.685 778.296 104.202C778.601 103.881 778.97 103.628 779.38 103.46C783.833 101.976 798.675 88.6179 798.675 88.6179L809.272 100.536L810.549 101.976L847.654 112.365L835.78 198.45Z" fill="#D0CDE1"/>
        <path d="M718.527 283.051L715.558 297.893C715.558 297.893 699.232 300.862 703.685 332.031L691.811 441.863L672.516 578.412L708.137 582.864L776.411 381.01L817.97 572.475H855.075L847.654 358.747C847.654 358.747 853.591 314.22 832.812 293.441C812.033 272.662 736.337 271.177 718.527 283.051Z" fill="#2F2E41"/>
        <path d="M684.39 618.486C684.39 618.486 687.358 606.612 679.937 605.128C672.516 603.644 666.579 609.581 665.095 612.549C663.61 615.517 629.473 657.076 629.473 657.076C629.473 657.076 604.242 686.76 641.347 685.276C678.453 683.792 679.937 665.981 679.937 665.981C679.937 665.981 679.937 663.013 687.358 663.013C694.779 663.013 714.074 652.623 712.59 645.202C711.106 637.781 698.624 612.13 698.624 612.13C698.624 612.13 690.326 633.328 684.39 618.486Z" fill="#2F2E41"/>
        <path d="M849.138 600.675C849.138 600.675 835.78 591.77 828.359 597.707C820.938 603.643 817.97 605.128 817.97 605.128L817.85 606.026C816.529 617.013 817.736 628.156 821.378 638.605C822.257 641.244 820.526 643.143 820.938 645.202C823.164 656.333 825.391 670.434 847.654 664.497C869.917 658.56 849.138 600.675 849.138 600.675Z" fill="#2F2E41"/>
        <path d="M838.749 315.704C838.749 315.704 813.517 342.42 828.359 351.325C843.202 360.231 852.107 323.125 852.107 323.125L838.749 315.704Z" fill="#A0616A"/>
        <path d="M674.113 37.647C674.113 37.647 691.62 5.33779 674.986 0.551669C658.352 -4.23445 659.295 33.9132 659.295 33.9132L674.113 37.647Z" fill="#A0616A"/>
        <path d="M763.187 114.354L758.601 127.208L743.506 112.113L751.224 103L763.053 113.85L763.187 114.354Z" fill="#2F2E41"/>
        <path d="M809.272 100.536L791.996 119.044L778.296 104.202C778.601 103.881 778.97 103.628 779.38 103.46C783.832 101.976 798.675 88.6179 798.675 88.6179L809.272 100.536Z" fill="#2F2E41"/>
        <path d="M828.359 116.818L847.654 112.365C847.654 112.365 868.433 128.692 875.854 185.092C883.276 241.493 855.075 332.031 855.075 332.031L832.812 318.673C832.812 318.673 844.686 247.43 843.202 237.04C841.717 226.651 832.812 186.577 832.812 186.577L828.359 116.818Z" fill="#D0CDE1"/>
        <path d="M731.156 20.0376L724.947 17.7796C724.947 17.7796 737.93 4.79601 755.994 5.92507L750.914 0.844479C750.914 0.844479 763.333 -3.67152 774.623 8.18301C780.558 14.4147 787.425 21.7396 791.705 29.9912H798.355L795.58 35.5421L805.294 41.093L795.323 40.0959C796.268 44.8883 795.943 49.8443 794.38 54.4722L792.123 60.6817C792.123 60.6817 783.09 42.6176 783.09 40.3596V46.0046C783.09 46.0046 776.881 40.9241 776.881 37.5371L773.494 41.4886L771.8 35.2791L750.914 41.4886L754.301 36.4081L741.317 38.1016L746.398 31.8921C746.398 31.8921 734.111 40.3807 731.156 45.4402C728.012 50.8243 723.253 59.5527 723.253 59.5527L719.866 53.9077C719.866 53.9077 714.786 28.5051 731.156 20.0376Z" fill="#2F2E41"/>
        <path d="M720.011 115.334L712.59 112.366L673.258 107.171L675.484 36.6702L657.674 20.3438C657.674 20.3438 608.694 109.397 659.158 142.05C709.621 174.703 725.948 180.64 725.948 180.64L720.011 115.334Z" fill="#D0CDE1"/>
        <path d="M437.087 371.587C433.148 371.587 429.298 372.755 426.023 374.943C422.749 377.131 420.196 380.241 418.689 383.88C417.182 387.518 416.787 391.522 417.556 395.385C418.324 399.248 420.221 402.796 423.006 405.581C425.791 408.366 429.339 410.262 433.202 411.031C437.065 411.799 441.068 411.405 444.707 409.898C448.346 408.39 451.456 405.838 453.644 402.563C455.832 399.289 457 395.439 457 391.5C457 388.885 456.485 386.296 455.484 383.88C454.483 381.464 453.017 379.268 451.167 377.419C449.318 375.57 447.123 374.103 444.707 373.102C442.291 372.102 439.702 371.587 437.087 371.587V371.587ZM433.652 400.411L425.086 391.846L427.488 389.443L433.66 395.614L446.685 382.589L449.087 384.991L433.652 400.411Z" fill="#0087FD"/>
        <path d="M205.087 141.587C201.148 141.587 197.298 142.755 194.023 144.943C190.749 147.131 188.196 150.241 186.689 153.88C185.182 157.518 184.787 161.522 185.556 165.385C186.324 169.248 188.221 172.796 191.006 175.581C193.791 178.366 197.339 180.262 201.202 181.031C205.065 181.799 209.068 181.405 212.707 179.898C216.346 178.39 219.456 175.838 221.644 172.563C223.832 169.289 225 165.439 225 161.5C225 158.885 224.485 156.296 223.484 153.88C222.483 151.464 221.017 149.268 219.168 147.419C217.318 145.57 215.123 144.103 212.707 143.102C210.291 142.102 207.702 141.587 205.087 141.587V141.587ZM201.652 170.411L193.086 161.846L195.488 159.443L201.66 165.614L214.685 152.589L217.087 154.991L201.652 170.411Z" fill="#0087FD"/>
    </g>
    <defs>
        <clipPath id="clip0">
            <rect width="910" height="685.33" fill="white"/>
        </clipPath>
    </defs>
</svg>
